# xmcd
#
# Track frame offsets:
#	150
#	7222
#	26399
#	37015
#	50158
#	62329
#	75512
#	87654
#	97676
#	110434
#	117979
#	132397
#	149332
#	162284
#	174601
#
# Disc length: 2558 seconds
#
# Revision: 0
# Processed by: cddbd v1.4PL0 Copyright (c) Steve Scherf et al.
# Submitted via: dBpowerAMP V4.0
#
DISCID=c709fc0f
DTITLE=Jiri Suchy - Purpura a jine vanocni
DYEAR=1997
DGENRE=Undefined
TTITLE0=Zpivame.zpivame
TTITLE1=Vanocni pohlednice
TTITLE2=Darek nevsedni
TTITLE3=Snehova vlocka
TTITLE4=Sedm darku
TTITLE5=Novy najemnik
TTITLE6=Rybi polevka
TTITLE7=Ja bych rada do Betlema
TTITLE8=Stribrna tramvaj
TTITLE9=Jazzova koleda
TTITLE10=Snih ve vlasech
TTITLE11=Kouzlo detektivek
TTITLE12=Zas narodil se Kristus pan
TTITLE13=Konci divadlo
TTITLE14=Purpura
EXTD=
EXTT0=
EXTT1=
EXTT2=
EXTT3=
EXTT4=
EXTT5=
EXTT6=
EXTT7=
EXTT8=
EXTT9=
EXTT10=
EXTT11=
EXTT12=
EXTT13=
EXTT14=
PLAYORDER=
